<svg width="12" height="12" viewBox="0 0 12 12" fill="none" xmlns="http://www.w3.org/2000/svg">
<path d="M10.125 1.5H0.375V9H10.125V1.5ZM9.375 8.25H1.125V2.25H9.375V8.25Z" fill="#94B5FF"/>
<path d="M10.875 3.375V9.75H2.25V10.5H11.625V3.375H10.875Z" fill="#94B5FF"/>
<path d="M5.25 7.08891C6.18047 7.08891 6.9375 6.26538 6.9375 5.25314C6.9375 4.2409 6.18047 3.41737 5.25 3.41737C4.31953 3.41737 3.5625 4.24088 3.5625 5.25314C3.5625 6.26541 4.31953 7.08891 5.25 7.08891ZM5.25 4.16737C5.76694 4.16737 6.1875 4.65445 6.1875 5.25314C6.1875 5.85183 5.76694 6.33891 5.25 6.33891C4.73306 6.33891 4.3125 5.85183 4.3125 5.25314C4.3125 4.65445 4.73306 4.16737 5.25 4.16737ZM1.875 3.1875H2.625V7.3125H1.875V3.1875ZM7.875 3.1875H8.625V7.3125H7.875V3.1875Z" fill="#94B5FF"/>
</svg>
