<svg width="20" height="19" viewBox="0 0 20 19" fill="none" xmlns="http://www.w3.org/2000/svg">
<path fill-rule="evenodd" clip-rule="evenodd" d="M11.5001 18.2069V14.2069H8.50009V18.2069H5.00009C4.73488 18.2069 4.48052 18.1015 4.29299 17.914C4.10545 17.7265 4.00009 17.4721 4.00009 17.2069V11.2069H1.41409C1.21634 11.2068 1.02304 11.1482 0.858635 11.0383C0.694225 10.9284 0.566086 10.7722 0.490416 10.5895C0.414746 10.4068 0.394943 10.2058 0.43351 10.0118C0.472078 9.8179 0.567284 9.63973 0.707094 9.49988L9.29309 0.91388C9.48062 0.726409 9.73493 0.621094 10.0001 0.621094C10.2653 0.621094 10.5196 0.726409 10.7071 0.91388L19.2931 9.49988C19.4329 9.63973 19.5281 9.8179 19.5667 10.0118C19.6052 10.2058 19.5854 10.4068 19.5098 10.5895C19.4341 10.7722 19.306 10.9284 19.1416 11.0383C18.9771 11.1482 18.7838 11.2068 18.5861 11.2069H16.0001V17.2069C16.0001 17.4721 15.8947 17.7265 15.7072 17.914C15.5197 18.1015 15.2653 18.2069 15.0001 18.2069H11.5001Z" fill="#30365B"/>
</svg>
