<svg width="16" height="17" viewBox="0 0 16 17" fill="none" xmlns="http://www.w3.org/2000/svg">
<g clip-path="url(#clip0_3194_1266)">
<path d="M5.81875 4.56941H10.1812V0.206909H5.81875V4.56941ZM11.6375 0.206909V4.56941H16V0.206909H11.6375ZM0 4.56941H4.3625V0.206909H0V4.56941ZM5.81875 10.3882H10.1812V6.02566H5.81875V10.3882ZM11.6375 10.3882H16V6.02566H11.6375V10.3882ZM0 10.3882H4.3625V6.02566H0V10.3882ZM5.81875 16.2069H10.1812V11.8444H5.81875V16.2069ZM11.6375 16.2069H16V11.8444H11.6375V16.2069ZM0 16.2069H4.3625V11.8444H0V16.2069Z" fill="black" fill-opacity="0.5"/>
</g>
<defs>
<clipPath id="clip0_3194_1266">
<rect width="16" height="16" fill="white" transform="translate(0 0.206909)"/>
</clipPath>
</defs>
</svg>
