<svg width="17" height="20" viewBox="0 0 17 20" fill="none" xmlns="http://www.w3.org/2000/svg">
<path d="M9 2C9 1.86739 8.94732 1.74021 8.85355 1.64645C8.75979 1.55268 8.63261 1.5 8.5 1.5C8.36739 1.5 8.24021 1.55268 8.14645 1.64645C8.05268 1.74021 8 1.86739 8 2V3.53C5.75 3.78 4 5.68 4 8V13.91L2.41 15.5H14.59L13 13.91V8C13 5.68 11.25 3.78 9 3.53V2ZM8.5 0.5C8.89782 0.5 9.27936 0.658035 9.56066 0.93934C9.84196 1.22064 10 1.60218 10 2V2.71C12.31 3.36 14 5.5 14 8V13.5L17 16.5H0L3 13.5V8C3 5.5 4.69 3.36 7 2.71V2C7 1.60218 7.15804 1.22064 7.43934 0.93934C7.72064 0.658035 8.10218 0.5 8.5 0.5ZM8.5 19.5C7.92367 19.5001 7.36501 19.3011 6.91855 18.9367C6.47209 18.5722 6.16527 18.0647 6.05 17.5H7.09C7.19284 17.7918 7.3837 18.0445 7.63625 18.2233C7.88879 18.4021 8.19059 18.4981 8.5 18.4981C8.80941 18.4981 9.11121 18.4021 9.36375 18.2233C9.6163 18.0445 9.80716 17.7918 9.91 17.5H10.95C10.8347 18.0647 10.5279 18.5722 10.0815 18.9367C9.63499 19.3011 9.07633 19.5001 8.5 19.5Z" fill="white"/>
</svg>
