<svg width="20" height="21" viewBox="0 0 20 21" fill="none" xmlns="http://www.w3.org/2000/svg">
<path fill-rule="evenodd" clip-rule="evenodd" d="M10 2.20691C8.60077 2.20665 7.22593 2.5734 6.01273 3.27054C4.79952 3.96768 3.79038 4.97083 3.08603 6.17986C2.38168 7.3889 2.00675 8.76153 1.99868 10.1607C1.9906 11.56 2.34966 12.9368 3.04001 14.1539C3.50662 13.5475 4.10644 13.0565 4.7931 12.7189C5.47975 12.3813 6.23485 12.2061 7.00001 12.2069H13C13.7652 12.2061 14.5203 12.3813 15.2069 12.7189C15.8936 13.0565 16.4934 13.5475 16.96 14.1539C17.6504 12.9368 18.0094 11.56 18.0013 10.1607C17.9933 8.76153 17.6183 7.3889 16.914 6.17986C16.2096 4.97083 15.2005 3.96768 13.9873 3.27054C12.7741 2.5734 11.3993 2.20665 10 2.20691ZM17.943 16.2829C18.0683 16.1196 18.1883 15.9522 18.303 15.7809C19.4116 14.1336 20.0026 12.1925 20 10.2069C20 4.68391 15.523 0.206909 10 0.206909C4.47701 0.206909 1.02555e-05 4.68391 1.02555e-05 10.2069C-0.00314107 12.4037 0.72005 14.5398 2.05701 16.2829L2.05201 16.3009L2.40701 16.7139C3.3449 17.8104 4.50939 18.6905 5.82024 19.2935C7.13109 19.8966 8.55711 20.2082 10 20.2069C10.216 20.2069 10.4307 20.2002 10.644 20.1869C12.4484 20.0731 14.1877 19.4699 15.675 18.4419C16.3863 17.9512 17.031 17.3704 17.593 16.7139L17.948 16.3009L17.943 16.2829ZM10 4.20691C9.20436 4.20691 8.4413 4.52298 7.87869 5.08559C7.31608 5.6482 7.00001 6.41126 7.00001 7.20691C7.00001 8.00256 7.31608 8.76562 7.87869 9.32823C8.4413 9.89084 9.20436 10.2069 10 10.2069C10.7957 10.2069 11.5587 9.89084 12.1213 9.32823C12.6839 8.76562 13 8.00256 13 7.20691C13 6.41126 12.6839 5.6482 12.1213 5.08559C11.5587 4.52298 10.7957 4.20691 10 4.20691Z" fill="black" fill-opacity="0.5"/>
</svg>
